<?xml version="1.0" encoding="utf-8" standalone="no"?>
<!DOCTYPE svg PUBLIC "-//W3C//DTD SVG 1.1//EN" "http://www.w3.org/Graphics/SVG/1.1/DTD/svg11.dtd">

<svg version="1.1" width="50px" height="50px"
   viewBox="0 0 50 50"
   x="0px" y="0px"
   baseProfile="full"
   xmlns="http://www.w3.org/2000/svg"
   xmlns:xlink="http://www.w3.org/1999/xlink"
   xmlns:ev="http://www.w3.org/2001/xml-events">
   
   <defs>
    
     <symbol id="phone" viewBox="0 0 19.7 19.7">
      <path d="M9.85,0c-3.51,0-7,.63-8.3,1.88A6.89,6.89,0,0,0,0,5.91S0,6,0,6.08a.82.82,0,0,0,.82.82L4,6.64l.09,0a.82.82,0,0,0,.8-.82V4.19a.9.9,0,0,1,.91-.9h8a.9.9,0,0,1,.91.9V5.8a.82.82,0,0,0,.8.82l.08,0,3.22.26a.82.82,0,0,0,.82-.82,1.63,1.63,0,0,0,0-.17,6.9,6.9,0,0,0-1.53-4C16.87.63,13.36,0,9.85,0Zm0,10.67a1.64,1.64,0,1,0,1.64,1.64A1.64,1.64,0,0,0,9.85,10.67ZM8.62,7V6a1,1,0,1,0-2,0V7L1,12.89a2.06,2.06,0,0,0-.62,1.47V16a1.64,1.64,0,0,0,1.64,1.64h.41v1a1,1,0,1,0,2.05,0v-1H15.18v1a1,1,0,0,0,2.05,0v-1h.41A1.64,1.64,0,0,0,19.28,16V14.36a2.05,2.05,0,0,0-.62-1.47L13.13,7V6a1,1,0,1,0-2.05,0V7ZM9.85,9a3.28,3.28,0,1,1-3.28,3.28A3.28,3.28,0,0,1,9.85,9Z"/>
    </symbol>

    <symbol id="mail" viewBox="0 0 17.99 13.97">
      <path d="M14.91,1.81c1.2-1,.9-1.81-.66-1.81H3.73C2.17,0,1.88.82,3.07,1.81L6.82,4.93a3.54,3.54,0,0,0,4.35,0Z"/>
      <path d="M11.91,7,9.7,8.88h0A1,1,0,0,1,9.44,9l-.1,0A1.13,1.13,0,0,1,9,9.14H9a1.2,1.2,0,0,1-.33-.06l-.1,0a1.05,1.05,0,0,1-.23-.14h0L6.08,7,2.18,3.8C1,2.8,0,3.26,0,4.82v6.32A2.84,2.84,0,0,0,2.83,14H15.15A2.84,2.84,0,0,0,18,11.13V4.82c0-1.56-1-2-2.18-1Z"/>
    </symbol>

    <symbol id="check" viewBox="0 0 21.7 16.09">
      <path d="M21.4.29A1,1,0,0,0,20,.29L6.61,13.68l-4.9-4.9A1,1,0,1,0,.29,10.19L5.9,15.8a1,1,0,0,0,1.41,0L21.4,1.71A1,1,0,0,0,21.4.29Z"/>
    </symbol>

   </defs>

</svg>
