<?xml version="1.0" encoding="utf-8" standalone="no"?>
<!DOCTYPE svg PUBLIC "-//W3C//DTD SVG 1.1//EN" "http://www.w3.org/Graphics/SVG/1.1/DTD/svg11.dtd">

<svg version="1.1" width="50px" height="50px"
   viewBox="0 0 50 50"
   x="0px" y="0px"
   baseProfile="full"
   xmlns="http://www.w3.org/2000/svg"
   xmlns:xlink="http://www.w3.org/1999/xlink"
   xmlns:ev="http://www.w3.org/2001/xml-events">
   
   <defs>
    
     <symbol id="color"  viewBox="0 0 48 48">
       <path d="M0,0H48V48H0Z" style="fill:none"/>
       <path d="M33.12,17.88,15.24,0,12.41,2.83l4.76,4.76L6.88,17.88a3,3,0,0,0,0,4.24l11,11a3,3,0,0,0,4.24,0l11-11A3,3,0,0,0,33.12,17.88ZM10.41,20,20,10.42,29.59,20ZM38,23s-4,4.33-4,7a4,4,0,0,0,8,0C42,27.33,38,23,38,23Z"/>
       <rect y="40" width="48" height="3"/>
    </symbol>

    <symbol id="contrast" viewBox="0 0 31.92 31.92">
      <path d="M16,4A12,12,0,1,1,4,16,12,12,0,0,1,16,4m0-4a16,16,0,1,0,16,16A16,16,0,0,0,16,0Z" />
      <path d="M16,24.29a8.52,8.52,0,1,0,0-17"/>
    </symbol>

    <symbol id="blur" viewBox="0 0 32 32">
    <path  d="M 16 3.25 L 15.1875 4.4375 C 15.1875 4.4375 13.179288 7.2876588 11.15625 10.6875 C 10.144731 12.387421 9.1182369 14.235614 8.34375 15.9375 C 7.5692631 17.639386 7 19.143799 7 20.5 C 7 25.212509 11.07604 29 16 29 C 20.923075 29 25 25.21267 25 20.5 C 25 19.143627 24.430741 17.639444 23.65625 15.9375 C 22.881759 14.235556 21.855273 12.387364 20.84375 10.6875 C 18.820705 7.2877727 16.8125 4.4375 16.8125 4.4375 L 16 3.25 z M 16 6.8125 C 16.576958 7.6500347 17.581682 9.0726878 19.15625 11.71875 C 20.144727 13.379886 21.118241 15.155694 21.84375 16.75 C 22.569259 18.344306 23 19.788373 23 20.5 C 23 24.05733 19.910925 27 16 27 C 12.08796 27 9 24.057491 9 20.5 C 9 19.788701 9.4307369 18.34427 10.15625 16.75 C 10.881763 15.15573 11.855269 13.379954 12.84375 11.71875 C 14.418324 9.0725794 15.42304 7.650106 16 6.8125 z" />
    </symbol>

   </defs>

</svg>
