<?xml version="1.0" encoding="utf-8" standalone="no"?>
<!DOCTYPE svg PUBLIC "-//W3C//DTD SVG 1.1//EN" "http://www.w3.org/Graphics/SVG/1.1/DTD/svg11.dtd">

<svg version="1.1" width="300px" height="300px"
   viewBox="0 0 300 300"
   x="0px" y="0px"
   baseProfile="full"
   xmlns="http://www.w3.org/2000/svg"
   xmlns:xlink="http://www.w3.org/1999/xlink"
   xmlns:ev="http://www.w3.org/2001/xml-events">
   <defs>

     <symbol id="apple-icon" viewBox="0 0 46.2 56.8">
       <path fill="#fff" d="M38.6 30.1a12.5 12.5 0 0 0 7.6 11.5 31 31 0 0 1-4 8.1c-2.3 3.5-4.7 6.9-8.6 7s-5-2.3-9.4-2.3-5.7 2.2-9.3 2.4S8.4 53 6 49.6c-4.9-7-8.6-20-3.6-28.6a13.9 13.9 0 0 1 11.7-7.1c3.7-.1 7.2 2.4 9.4 2.4s6.4-3 10.9-2.6a13.3 13.3 0 0 1 10.4 5.7c-.3.1-6.2 3.6-6.2 10.8M31.4 9a12.5 12.5 0 0 0 3-9.1A12.7 12.7 0 0 0 26 4.3a11.8 11.8 0 0 0-3 8.8c3.2.2 6.4-1.6 8.4-4"/>
     </symbol>
     
     <symbol id="android-icon" viewBox="0 0 42.08 47.04">
       <path fill="#a4c639" d="M34.14 14H7.94V33.1a3.6 3.6 0 0 0 3.32 3.63v7.43a2.88 2.88 0 0 0 5.77 0v-7.42h8.06v7.42a2.89 2.89 0 0 0 5.77 0v-7.44a3.6 3.6 0 0 0 3.32-3.63V14.34a3.52 3.52 0 0 1-.04-.34zM2.89 15.68a2.89 2.89 0 0 1 2.89 2.88v12.38a2.89 2.89 0 0 1-2.89 2.89A2.89 2.89 0 0 1 0 30.94V18.56a2.88 2.88 0 0 1 2.89-2.88zM39.2 15.68a2.88 2.88 0 0 1 2.89 2.88v12.38a2.88 2.88 0 0 1-2.89 2.89 2.88 2.88 0 0 1-2.88-2.89V18.56a2.88 2.88 0 0 1 2.88-2.88zM8 12h26a10.47 10.47 0 0 0-3.19-7.27L33.32.46A.31.31 0 0 0 33.2 0a.3.3 0 0 0-.41.11l-2.37 4.15A16.11 16.11 0 0 0 21 .86a16.39 16.39 0 0 0-9.37 3.4L9.3.15a.3.3 0 0 0-.53.3l2.44 4.23A10.48 10.48 0 0 0 8 12zm17.32-5.2a1.49 1.49 0 0 1 3 0 1.49 1.49 0 0 1-3 0zm-11.14 0a1.49 1.49 0 0 1 3 0 1.49 1.49 0 0 1-3 0z"/>
     </symbol>
     
     <symbol id="microsoft-icon" viewBox="0 0 44 42">
       <path d="M21 20H0V0h21z" fill="#f05423"/>
       <path d="M44 20H23V0h21z" fill="#84c441"/>
       <path d="M21 42H0V22h21z" fill="#2dabe2"/>
       <path d="M44 42H23V22h21z" fill="#f9bc15"/>
     </symbol>
     
     <symbol id="clock" viewBox="0 0 298 345.1">
        <path fill="#DEDEDE" d="M264.6,102.1l5.4-5.4c7.7-7.7,9.1-18.9,3.1-24.9c-6-6-17.2-4.6-24.9,3.1l-5.4,5.4c-21-17-46.6-28.4-74.7-32
        v-9.6h7.7c10.9,0,19.8-8.7,19.8-19.4S186.6,0,175.7,0h-53.3c-10.9,0-19.8,8.7-19.8,19.4s8.9,19.4,19.8,19.4h7.7v9.6
        C56.7,57.6,0,120.2,0,196.1c0,82.3,66.7,149,149,149c82.3,0,149-66.7,149-149C298,160.4,285.5,127.7,264.6,102.1z M149,306.3
        c-60.8,0-110.2-49.3-110.2-110.2c0-60.8,49.3-110.2,110.2-110.2c60.8,0,110.2,49.3,110.2,110.2C259.2,256.9,209.8,306.3,149,306.3z"/>
        <path fill="#D22856" d="M149.5,69.6C79.6,69.6,23,126.2,23,196.1c0,69.9,56.6,126.5,126.5,126.5S276,266,276,196.1
        C276,126.2,219.4,69.6,149.5,69.6z M149.5,306.8c-60.8,0-110.2-49.3-110.2-110.2c0-60.8,49.3-110.2,110.2-110.2
        c60.8,0,110.2,49.3,110.2,110.2C259.7,257.5,210.3,306.8,149.5,306.8z"/>
        <path fill="#D22856" d="M144.2,232H84.3v-12.6l21.5-21.7c6.4-6.5,10.5-11,12.5-13.6c2-2.5,3.4-4.9,4.2-7c0.9-2.1,1.3-4.4,1.3-6.7
        c0-3.4-0.9-6-2.8-7.7c-1.9-1.7-4.4-2.5-7.6-2.5c-3.3,0-6.5,0.8-9.7,2.3c-3.1,1.5-6.4,3.7-9.8,6.5l-9.8-11.7
        c4.2-3.6,7.7-6.1,10.5-7.6c2.8-1.5,5.8-2.6,9.1-3.4c3.3-0.8,7-1.2,11-1.2c5.4,0,10.1,1,14.2,2.9c4.1,2,7.3,4.7,9.6,8.2
        c2.3,3.5,3.4,7.5,3.4,12.1c0,3.9-0.7,7.6-2.1,11.1c-1.4,3.5-3.5,7-6.4,10.6c-2.9,3.6-8,8.8-15.4,15.5l-11,10.4v0.8h37.3V232z"/>
        <path fill="#D22856" d="M214.6,214.3h-10.3V232h-17.7v-17.8H150v-12.6l37.6-55.3h16.7v53.8h10.3V214.3z M186.6,200.2v-14.5
        c0-2.4,0.1-5.9,0.3-10.5c0.2-4.6,0.4-7.3,0.5-8h-0.5c-1.4,3.2-3.2,6.3-5.2,9.4L166,200.2H186.6z"/>
     </symbol>


        <symbol id="marker" viewBox="0 0 35.98 35.98">
    			<circle cx="17.99" cy="17.99" r="17.99" style="fill:#fff"/>
    			<circle cx="17.99" cy="17.99" r="7.87" style="fill:#d22856"/>
        </symbol>

    <symbol id="yes" viewBox="0 0 30.37 21.69" style="fill:#3dc644">
	     <path d="M29.94.44a1.5,1.5,0,0,0-2.12,0L10.19,18.07,2.56,10.44A1.5,1.5,0,1,0,.44,12.56l8.69,8.69a1.5,1.5,0,0,0,2.12,0L29.94,2.56A1.5,1.5,0,0,0,29.94.44Z"/>
    </symbol> 

    <symbol id="no" viewBox="0 0 26.75 26.75" style="fill:#f25b26">
      <path d="M15.5,13.38,26.31,2.56A1.5,1.5,0,1,0,24.19.44L13.38,11.26,2.56.44A1.5,1.5,0,0,0,.44,2.56L11.26,13.38.44,24.19a1.5,1.5,0,0,0,2.12,2.12L13.38,15.5,24.19,26.31a1.5,1.5,0,1,0,2.12-2.12Z"/>
    </symbol>  

   </defs>



</svg>
