<?xml version="1.0" encoding="utf-8" standalone="no"?>
<!DOCTYPE svg PUBLIC "-//W3C//DTD SVG 1.1//EN" "http://www.w3.org/Graphics/SVG/1.1/DTD/svg11.dtd">
<!-- <?xml-stylesheet href="svg-style.css" type="text/css"?> -->

<svg version="1.1" width="300px" height="300px"
  viewBox="00160 42"
  x="0px" y="0px"
  baseProfile="full"
  xmlns="http://www.w3.org/2000/svg"
  xmlns:xlink="http://www.w3.org/1999/xlink"
  xmlns:ev="http://www.w3.org/2001/xml-events">
    <defs>
    <symbol id="logo-desktop-base" viewBox="0 0 147 42">
      <path class="glasses-part" d="M43.09 19.31h.73a2.49 2.49 0 0 0-2.14-1.22 2 2 0 0 1-1.88-1.35 12 12 0 0 0-2.09.82.7.7 0 0 0 .19 0 1.95 1.95 0 0 1 2 2.28 9 9 0 0 1 3.19-.53z"/>
      <path class="glasses" d="M60.46 28L55.29 6.65C54.93 4.3 52.69 0 46.69 0a1.5 1.5 0 1 0 0 3c4.86 0 5.58 3.73 5.64 4.14l4.77 19.7H55a12 12 0 0 0-5.31-8.52 2.5 2.5 0 0 0-1.53 2.3 2 2 0 0 1 0 .26A9 9 0 1 1 35 24.36a2 2 0 0 1-1.85-2 .74.74 0 0 0-.19-.49 12 12 0 0 0-1.79 5h-1.82a12 12 0 0 0-23.85 0H3.42L8.19 7.14C8.25 6.73 9 3 13.83 3a1.5 1.5 0 1 0 0-3c-6 0-8.24 4.3-8.6 6.65L.05 28a1.42 1.42 0 0 0 1.43 1.83h4a11.93 11.93 0 0 0 .39 1.83.73.73 0 0 0 .1-.35 2 2 0 0 1 2-2 2 2 0 0 1 .48.06 8.33 8.33 0 0 1-.07-1 9 9 0 1 1 9 9A9 9 0 0 1 12 35.58a2 2 0 0 1-1.3.49.75.75 0 0 0-.75.75 2 2 0 0 1-.18.81 12 12 0 0 0 19.54-7.79h1.81a12 12 0 0 0 23.85 0h4A1.42 1.42 0 0 0 60.46 28z"/>
    </symbol>

    <symbol id="logo-desktop-text" viewBox="0 0 147 42">
      <path class="text" d="M71.87 18.66a1.29 1.29 0 0 1 1.26-1.29h7.18c5.09 0 8.44 2.7 8.44 7.15v.06c0 4.86-4.06 7.37-8.85 7.37h-5.48v6.83a1.27 1.27 0 1 1-2.54 0V18.66zm8.11 11c3.73 0 6.18-2 6.18-5v-.06c0-3.22-2.41-4.89-6.05-4.89h-5.7v9.92H80zM93.6 18.5a1.27 1.27 0 1 1 2.54 0v20.28a1.27 1.27 0 1 1-2.54 0zM102.74 18.53a1.28 1.28 0 0 1 1.26-1.25h.35a1.56 1.56 0 0 1 1.29.74l13.68 17.45v-17a1.24 1.24 0 1 1 2.48 0v20.35a1.14 1.14 0 0 1-1.15 1.18h-.13a1.73 1.73 0 0 1-1.32-.77l-14-17.87v17.46a1.24 1.24 0 1 1-2.48 0V18.53zM128.17 18.5a1.27 1.27 0 1 1 2.54 0v12.33l12.85-13.17a1.45 1.45 0 0 1 1-.45 1.27 1.27 0 0 1 1.22 1.26 1.25 1.25 0 0 1-.42.9l-8 7.92 8.56 10.56a1.41 1.41 0 0 1 .35.94 1.31 1.31 0 0 1-1.27 1.28 1.22 1.22 0 0 1-1-.58L135.58 29l-4.86 4.86v4.89a1.27 1.27 0 1 1-2.54 0V18.5z"/>
    </symbol>

    <symbol id="logo-desktop-glasses-stars" viewBox="0 0 147 42">
      <path class="glasses-stars" d="M50.69 16.12a4.5 4.5 0 0 1-4.5-4.5 4.5 4.5 0 0 1-4.5 4.5 4.5 4.5 0 0 1 4.5 4.5 4.5 4.5 0 0 1 4.5-4.5zM37.9 19.63a2.75 2.75 0 0 1-2.75-2.75 2.75 2.75 0 0 1-2.75 2.75 2.75 2.75 0 0 1 2.75 2.75 2.75 2.75 0 0 1 2.75-2.75zM10.73 34.07A2.75 2.75 0 0 1 8 31.32a2.75 2.75 0 0 1-2.75 2.75A2.75 2.75 0 0 1 8 36.82a2.75 2.75 0 0 1 2.73-2.75z"/>
    </symbol>

    <symbol id="logo-desktop-text-star" viewBox="0 0 147 42">
      <path class="text-star" d="M98.5 9.87a3.62 3.62 0 0 1-3.62-3.62 3.62 3.62 0 0 1-3.62 3.62 3.62 3.62 0 0 1 3.62 3.62 3.62 3.62 0 0 1 3.62-3.62z"/>
    </symbol>

    <symbol id="logo-tablet-base" viewBox="0 0 147 42">
      <path class="st0" d="M60.5,28.3"/>
      <path class="st1" d="M60.5,28L55.3,6.7C54.9,4.3,52.7,0,46.7,0c-0.8,0-1.5,0.7-1.5,1.5S45.9,3,46.7,3c4.9,0,5.6,3.7,5.6,4.1
  l4.8,19.7H55c-0.7-6.6-6.7-11.3-13.3-10.6c-5.6,0.6-10,5-10.6,10.6h-1.8c-0.7-6.6-6.7-11.3-13.3-10.6c-5.6,0.6-10,5-10.6,10.6H3.4
  L8.2,7.1C8.3,6.7,9,3,13.8,3c0.8,0,1.5-0.7,1.5-1.5S14.7,0,13.8,0c-6,0-8.2,4.3-8.6,6.7L0.1,28c-0.2,0.8,0.2,1.5,0.9,1.8
  c0.2,0,0.3,0.1,0.5,0.1h4c0.7,6.6,6.7,11.3,13.3,10.6c5.6-0.6,10-5,10.6-10.6h1.8c0.7,6.6,6.7,11.3,13.3,10.6
  c5.6-0.6,10-5,10.6-10.6h4c0.8,0.1,1.5-0.5,1.5-1.3C60.5,28.3,60.5,28.2,60.5,28z M26.6,30c-0.9,5-5.8,8.3-10.8,7.4
  s-8.3-5.8-7.4-10.8s5.8-8.3,10.8-7.4c4.4,0.8,7.6,4.7,7.6,9.1C26.7,28.9,26.7,29.5,26.6,30z M52.2,30c-0.9,5-5.7,8.4-10.7,7.5
  s-8.4-5.7-7.5-10.7c0.9-5,5.7-8.4,10.7-7.5c4.4,0.8,7.6,4.6,7.6,9.1C52.4,28.9,52.3,29.4,52.2,30L52.2,30z"/>
    </symbol>

    <symbol id="logo-tablet-text" viewBox="0 0 147 42">
      <path class="I" d="M93.6,18.5a1.27,1.27,0,1,1,2.54,0V38.78a1.27,1.27,0,1,1-2.54,0Z"/>
      <path class="P" d="M71.87,18.66a1.29,1.29,0,0,1,1.26-1.29h7.18c5.09,0,8.44,2.7,8.44,7.15v.06c0,4.86-4.06,7.37-8.85,7.37H74.42v6.83a1.27,1.27,0,1,1-2.54,0V18.66Zm8.11,11c3.73,0,6.18-2,6.18-5v-.06c0-3.22-2.41-4.89-6.05-4.89h-5.7v9.92H80Z"/>
      <path class="K" d="M128.17,18.5a1.27,1.27,0,1,1,2.54,0V30.83l12.85-13.17a1.45,1.45,0,0,1,1-.45,1.27,1.27,0,0,1,1.22,1.26,1.25,1.25,0,0,1-.42.9l-8,7.92,8.56,10.56a1.41,1.41,0,0,1,.35.94A1.31,1.31,0,0,1,145,40.07a1.22,1.22,0,0,1-1-.58L135.58,29l-4.86,4.86v4.89a1.27,1.27,0,1,1-2.54,0V18.5Z"/>
      <path class="N" d="M102.74,18.53A1.28,1.28,0,0,1,104,17.28h.35a1.56,1.56,0,0,1,1.29.74l13.68,17.45v-17a1.24,1.24,0,1,1,2.48,0V38.82A1.14,1.14,0,0,1,120.65,40h-.13a1.73,1.73,0,0,1-1.32-.77l-14-17.87V38.82a1.24,1.24,0,1,1-2.48,0V18.53Z"/>
    </symbol>

    <symbol id="logo-mobile" viewBox="0 0 147 42">
      <path d="M0 1.45A1.29 1.29 0 0 1 1.26.16h7.18c5.09 0 8.44 2.7 8.44 7.15v.06c0 4.86-4.06 7.37-8.85 7.37H2.54v6.83a1.29 1.29 0 0 1-1.29 1.29A1.28 1.28 0 0 1 0 21.57zm8.11 11c3.73 0 6.18-2 6.18-5v-.04c0-3.22-2.41-4.89-6.05-4.89h-5.7v9.92zM21.73 1.29a1.27 1.27 0 1 1 2.54 0v20.28a1.27 1.27 0 1 1-2.54 0V1.29zM30.87 1.32A1.28 1.28 0 0 1 32.13.06h.35a1.56 1.56 0 0 1 1.29.74l13.68 17.45v-17a1.24 1.24 0 1 1 2.48 0V21.6a1.14 1.14 0 0 1-1.16 1.19h-.13a1.74 1.74 0 0 1-1.32-.79l-14-17.87V21.6a1.24 1.24 0 1 1-2.48 0zM56.3 1.29a1.27 1.27 0 1 1 2.54 0v12.33L71.69.45a1.44 1.44 0 0 1 1-.45 1.27 1.27 0 0 1 1.22 1.26 1.25 1.25 0 0 1-.42.9l-8 7.92 8.56 10.56a1.41 1.41 0 0 1 .35.93 1.31 1.31 0 0 1-1.29 1.29 1.22 1.22 0 0 1-1-.58l-8.4-10.46-4.86 4.86v4.89a1.27 1.27 0 1 1-2.54 0V1.29z"/>
    </symbol>


    </defs>
</svg>
