<?xml version="1.0" encoding="utf-8" standalone="no"?>
<!DOCTYPE svg PUBLIC "-//W3C//DTD SVG 1.1//EN" "http://www.w3.org/Graphics/SVG/1.1/DTD/svg11.dtd">
<!-- <?xml-stylesheet href="svg-style.css" type="text/css"?> -->

<svg version="1.1" width="300px" height="300px"
  viewBox="0 0 300 300"
  x="0px" y="0px"
  baseProfile="full"
  xmlns="http://www.w3.org/2000/svg"
  xmlns:xlink="http://www.w3.org/1999/xlink"
  xmlns:ev="http://www.w3.org/2001/xml-events">
  <defs>
    <symbol id="twitter-icon" viewBox="0 0 17.5 14.66">
      <path d="M11.28.15A3.28,3.28,0,0,1,15,1.3c.69-.23,1.37-.47,2.07-.69a2.25,2.25,0,0,1-.88,1.73,1.64,1.64,0,0,0,1.34-.48,2.9,2.9,0,0,1-1.61,2c-.24,6.59-3.27,11-10.38,10.82H5c-.42,0-4.29-.45-5-1.84a6.57,6.57,0,0,0,4.84-1.15c-1-.29-2.76-.46-3.07-2.88A2.14,2.14,0,0,0,3,8.9C1.76,8.07.38,7.37.46,5.22a2,2,0,0,0,1.38.46C1.12,5.44-.19,2.4.92.84,2.79,2.65,4.77,4.36,8.29,4.53,8.51,2.29,9.46.79,11.28.15Z"/>
    </symbol>

    <symbol id="facebook-icon" viewBox="0 0 8.67 18.94">
      <path d="M6.27,3.36h2.4V0H5.8C2.66.18,1.54,2.39,1.95,6.12H0V9.63H2v9.31H5.8V9.63H8.65V6.12H5.79C5.77,5.07,5.75,3.71,6.27,3.36Z"/>
    </symbol>

    <symbol id="youtube-icon" viewBox="0 0 14.64 13.96">
      <path d="M1.78,13.78A1.14,1.14,0,0,1,0,12.67V1.29A1.14,1.14,0,0,1,1.78.18L13.91,6.11c1,.48,1,1.26,0,1.74Z"/>
    </symbol>

    <symbol id="academy-logo" viewBox="0 0 154.38 195.33">
      <path d="M78,.59,77.19.5.5,8.54V149.11l76.69,45.63,76.69-45.63V8.54Zm65.86,142.82L77.19,183.07,10.53,143.41V85.79L76.91,125.3l.11,7.16-45.53-27.1-.07,7,45.71,27.47.11,7.35-45.7-27.19-.07,7,45.71,27.47,46.15-27.62v-7l-.06,0V97.1l20.57-12.28Zm-.05-66.06L125.56,88.09l-8.42,5L77,69.17l-.07,7,34.32,20.41-.3.18-.74.44L105.33,100,77,83.16l-.07,7,22.36,13.3L94,106.94l-.13.08L77,97.06l-.07,7L88,110.54l-11.29,6.78-66-39.26L76.82,38.31h0Zm.05-7-67-39.51h0L10.53,70.31V17.58l66.66-7,66.66,7Z" style="stroke:#231f20;stroke-miterlimit:10"/>
     </symbol>
     
     <symbol id="heart" viewBox="-12 0 195 155.4">
         <path  d="M85.5,25.5c33.8-41.9,85-26,85,21s-85,108.3-85,108.3S.5,93.5.5,46.5,52.3-18.1,85.5,25.5Z" stroke-width="25px"/>
    </symbol>
  </defs>



</svg>
